<svg version="1.1" id="Layer_1" xmlns="http://www.w3.org/2000/svg" xmlns:xlink="http://www.w3.org/1999/xlink" x="0px" y="0px"
	 width="566.93px" height="510.24px" viewBox="0 0 566.93 510.24" enable-background="new 0 0 566.93 510.24" xml:space="preserve">
<path  fill="#FFCC31" d="M298.956,47.45c0.339,0.862,1.056,0.6,1.63,0.637c29.067,2.011,57.672,9.079,84.769,20.947
	c26.369,11.564,51.103,27.288,73.441,46.688c12.351,10.66,23.938,22.366,34.66,35.016c24.635,29.061,44.295,61.741,57.801,98.853
	c6.181,16.825,10.646,34.364,13.319,52.293c1.98,13.303,2.705,26.8,2.167,40.271c-0.248,5.779-0.765,11.544-1.55,17.263
	c-0.305,2.223-0.53,2.397-2.393,1.475c-7.285-3.648-14.15-8.261-20.445-13.73c-6.514-5.644-12.855-11.536-19.954-16.305
	c-9.53-6.225-19.684-11.192-30.249-14.805c-17.223-5.945-34.784-10.601-52.567-13.931c-12.283-2.498-24.363-5.854-36.469-9.188
	c-16.447-4.544-32.909-9.051-49.549-12.658c-12.676-2.747-25.419-4.993-38.298-6.403c-10.904-1.215-21.875-1.521-32.818-0.911
	c-10.96,0.477-21.783,2.879-32.067,7.115c-13.993,5.703-25.531,17.071-32.303,31.833c-3.055,6.436-5.682,13.11-7.86,19.972
	c-1.693,5.692-5.753,10.127-10.902,11.909c-6.39,2.342-12.914,4.216-19.525,5.604c-11.576,2.747-23.242,5.069-35.008,6.542
	c-8.208,1.024-16.438,1.697-24.701,2.109c-7.725,0.375-15.438,0.536-23.165,0.338c-10.942-0.292-21.871-0.999-32.785-2.122
	c-13.316-1.373-26.554-3.332-39.758-5.63c-6.647-1.159-13.25-2.597-19.885-3.746c-1.504-0.273-2.178-0.972-2.245-2.646
	c-0.202-2.983-0.606-5.954-0.763-8.938c-1.123-21.458,1.683-42.443,7.198-62.916c7.699-28.128,19.318-54.741,34.436-78.867
	c27.137-44.383,63.334-80.999,105.631-106.856c36.47-22.525,77.006-35.704,118.646-38.572c0.663,0,1.471,0.299,1.919-0.637h29.642
	V47.45z"/>
<path  fill="#1C58A7" d="M558.534,385.607c-0.439-0.626-0.9-1.25-1.381-1.838
	c-6.847-8.458-14.616-15.932-23.131-22.243c-14.36-10.823-30.012-18.727-46.281-25.229c-23.14-9.251-46.91-15.519-70.948-20.959
	c-19.156-4.382-38.344-8.526-57.485-12.934c-20.829-4.793-41.735-9.112-63.068-10.123c-11.901-0.563-23.702,0.087-35.289,3.296
	c-20.772,5.741-35.222,19.425-42.442,42.093c-0.225,0.687-0.741,1.36-0.236,2.184c0.82-0.375,1.202-1.248,1.707-1.872
	c15.134-19.725,34.536-29.273,57.689-29.836c8.083-0.131,16.16,0.68,24.094,2.411c13.277,2.573,26.126,7.39,38.096,14.278
	c10.789,6.392,20.211,14.806,29.056,24.094c5.614,5.893,11.231,11.834,16.844,17.627c14.215,14.51,31.485,24.813,50.223,29.958
	c8.276,2.322,16.719,3.647,25.115,5.257c21.119,4.058,42.161,8.739,63.473,11.485c7.39,1.094,14.843,1.57,22.297,1.424
	c0.719,0,1.606,0.337,2.247-0.725c-6.201-8.577-13.597-14.979-23.58-17.077c-2.473-0.508-4.952-0.924-7.443-1.249
	c-6.502-0.936-13.014-1.672-19.493-2.721c-13.585-2.209-27.214-3.995-40.869-5.654c-8.298-0.863-16.546-2.255-24.7-4.171
	c-10.262-2.609-19.65-7.214-27.092-15.666c-12.438-13.863-26.106-26.295-40.791-37.101c-7.221-5.415-14.327-11.009-21.043-17.201
	c-0.738-0.688-1.66-1.247-2.11-2.32c0.269-0.032,0.54-0.032,0.808,0c15.714,3.033,30.596,10.027,43.498,20.447
	c5.535,4.458,10.769,9.325,15.987,14.194c4.745,4.565,9.743,8.798,14.966,12.669c5.445,4.043,11.549,6.866,17.966,8.314
	c7.578,1.584,15.135,3.32,22.715,4.894c14.371,2.972,28.782,5.688,43.238,8.15c11.35,1.948,22.727,3.67,34.144,5.105
	c7.23,0.898,14.484,1.512,21.748,1.86c0.494,0,1.055,0.238,1.472-0.252C558.543,385.968,558.622,385.72,558.534,385.607z"/>
<path  fill="#1C58A7" d="M288.492,409.361l-31.596-5.793c-10.308-1.872-20.413-4.656-30.519-7.09
	c-9.065-2.315-18.541-1.654-27.271,1.91c-4.896,1.979-9.705,4.183-14.429,6.604c-7.087,3.637-14.392,6.728-21.86,9.248
	c-18.986,6.43-38.5,9.537-58.216,11.237c-17.009,1.483-34.065,1.958-51.132,1.933c-11.587,0-23.189,0-34.806,0h-2.515
	c2.07,1.567,4.341,2.772,6.737,3.582c22.747,9.275,46.337,14.794,70.173,19.149c14.698,2.684,29.485,4.682,44.328,6.242
	c14.406,1.459,28.821,2.497,43.273,2.808c28.945,0.661,57.8-0.462,86.454-5.98c13.733-2.463,27.208-6.479,40.207-11.983
	c9.655-4.231,18.797-9.488,26.812-16.901c1.331-1.071,2.505-2.357,3.48-3.821l-2.929-0.887
	C319.459,415.116,303.987,412.182,288.492,409.361z"/>
<path  fill="#1C58A7" d="M532.227,431.656c-3.313-2.574-6.924-4.64-10.734-6.142
	c-8.384-3.291-17.032-5.686-25.822-7.152c-12.565-2.396-25.264-3.746-37.918-5.294c-14.81-1.861-29.506-4.47-44.169-7.329
	c-9.844-1.711-18.885-7.043-25.682-15.142c-2.941-3.508-6.027-6.852-8.981-10.359c-8.098-10.038-17.007-19.23-26.61-27.464
	c-16.033-13.306-33.302-23.904-52.672-29.896c-11.968-3.744-24.104-5.366-36.467-2.77c-13.451,2.604-25.282,11.422-32.56,24.265
	c-0.45,0.554-0.726,1.255-0.785,1.999c0.246,0.035,0.494,0.035,0.74,0c0.664-0.288,1.326-0.625,1.987-0.924
	c10.493-4.986,21.588-8.229,32.931-9.625c16.072-1.839,32.302,0.901,47.155,7.964c14.07,6.553,26.386,16.103,37.804,27.213
	c8.542,8.554,16.638,17.643,24.242,27.226c4.313,5.497,8.984,10.629,13.979,15.354c4.307,3.942,9.419,6.643,14.889,7.864
	c5.018,1.136,10.103,1.685,15.193,2.347c8.194,1.071,16.402,2.07,24.587,3.256c11.294,1.637,22.579,3.409,33.862,5.132l30.138,4.57
	c5.692,0.86,11.362,1.896,17.077,2.495c4.144,0.449,8.253,0,11.542-3.632C534.919,434.071,533.659,432.733,532.227,431.656z"/>
<path  fill="#1C58A7" d="M60.151,393.084c15.173,0.559,30.364-0.163,45.438-2.161
	c13.386-1.599,26.653-4.251,39.702-7.938c6.276-1.689,12.378-4.089,18.212-7.166c1.57-0.74,2.988-1.827,4.166-3.196
	c-54.209-0.35-108.192-4.009-162.097-9.087c-0.093,0.001-0.181,0.041-0.247,0.111c-0.258,0.274,0.269,0.202-0.213,0.313
	c0.952,1.804,1.655,3.756,2.089,5.793c0.258,1.682,0.989,3.228,2.088,4.418c5.471,6.822,12.585,11.759,20.502,14.221
	C39.716,391.232,49.902,392.807,60.151,393.084z"/>
<path  fill="#1C58A7" d="M30.015,407.838c2.324,1.514,4.743,2.833,7.242,3.946c9.633,4.184,19.826,6.556,30.158,7.015
	c16.52,0.917,33.08-0.122,49.402-3.097c15.934-2.894,31.626-7.235,46.922-12.982c4.764-1.77,9.342-4.108,13.653-6.977
	c0.992-0.519,1.624-1.63,1.617-2.846L28.926,406.466C28.926,407.501,29.6,407.564,30.015,407.838z"/>
</svg>
