<svg id="Layer_1" data-name="Layer 1" xmlns="http://www.w3.org/2000/svg" viewBox="0 0 520.8 477.69"><defs><style>.cls-1{fill:#fecb30;}.cls-2{fill:#1756a8;}.cls-3{fill:#0a60ac;}.cls-4{fill:#045caa;}</style></defs><title>new logo</title><path class="cls-1" d="M303.64,18.4c.3.69.94.48,1.45.51a248,248,0,0,1,75.5,16.78A263.14,263.14,0,0,1,446,73.09a269.94,269.94,0,0,1,30.87,28.05c21.94,23.28,39.45,49.46,51.48,79.19a195.1,195.1,0,0,1,11.86,41.89,155.34,155.34,0,0,1,1.93,32.26,133.34,133.34,0,0,1-1.38,13.83c-.27,1.78-.47,1.92-2.13,1.18a88.7,88.7,0,0,1-18.21-11c-5.8-4.52-11.45-9.24-17.77-13.06a126.71,126.71,0,0,0-26.94-11.86,358.77,358.77,0,0,0-46.82-11.16c-10.94-2-21.7-4.69-32.48-7.36-14.65-3.64-29.31-7.25-44.13-10.14-11.29-2.2-22.64-4-34.11-5.13a195.15,195.15,0,0,0-29.23-.73,92.58,92.58,0,0,0-28.56,5.7,52.63,52.63,0,0,0-28.77,25.5,119.51,119.51,0,0,0-7,16,14.89,14.89,0,0,1-9.71,9.54,136.21,136.21,0,0,1-17.39,4.49c-10.31,2.2-20.7,4.06-31.18,5.24-7.31.82-14.64,1.36-22,1.69-6.88.3-13.75.43-20.63.27q-14.62-.35-29.2-1.7c-11.86-1.1-23.65-2.67-35.41-4.51-5.92-.93-11.8-2.08-17.71-3-1.34-.22-1.94-.78-2-2.12-.18-2.39-.54-4.77-.68-7.16-1-17.19,1.5-34,6.41-50.4a225.28,225.28,0,0,1,30.67-63.18,272.55,272.55,0,0,1,94.08-85.6A249.35,249.35,0,0,1,275.53,18.91c.59,0,1.31.24,1.71-.51Z" transform="translate(-31.48 -18.4)"/><path class="cls-2" d="M534.83,289.29c-.39-.5-.8-1-1.23-1.47A109.28,109.28,0,0,0,513,270c-12.79-8.67-26.73-15-41.22-20.21C451.17,242.38,430,237.36,408.59,233c-17.06-3.51-34.15-6.83-51.2-10.36-18.55-3.84-37.17-7.3-56.17-8.11-10.6-.45-21.11.07-31.43,2.64-18.5,4.6-31.37,15.56-37.8,33.72-.2.55-.66,1.09-.21,1.75.73-.3,1.07-1,1.52-1.5,13.48-15.8,30.76-23.45,51.38-23.9a103.6,103.6,0,0,1,21.46,1.93,117.84,117.84,0,0,1,33.93,11.44c9.61,5.12,18,11.86,25.88,19.3,5,4.72,10,9.48,15,14.12a102.47,102.47,0,0,0,44.73,24c7.37,1.86,14.89,2.92,22.37,4.21,18.81,3.25,37.55,7,56.53,9.2a132.69,132.69,0,0,0,19.86,1.14c.64,0,1.43.27,2-.58-5.52-6.87-12.11-12-21-13.68q-3.3-.61-6.63-1c-5.79-.75-11.59-1.34-17.36-2.18-12.1-1.77-24.24-3.2-36.4-4.53a193.59,193.59,0,0,1-22-3.34c-9.14-2.09-17.5-5.78-24.13-12.55a232.6,232.6,0,0,0-36.33-29.72c-6.43-4.34-12.76-8.82-18.74-13.78-.66-.55-1.48-1-1.88-1.86a3.56,3.56,0,0,1,.72,0,93,93,0,0,1,38.74,16.38c4.93,3.57,9.59,7.47,14.24,11.37A133.59,133.59,0,0,0,409,267.26,44.88,44.88,0,0,0,425,273.92c6.75,1.27,13.48,2.66,20.23,3.92q19.2,3.57,38.51,6.53c10.11,1.56,20.24,2.94,30.41,4.09,6.44.72,12.9,1.21,19.37,1.49.44,0,.94.19,1.31-.2C534.84,289.58,534.91,289.38,534.83,289.29Z" transform="translate(-31.48 -18.4)"/><path class="cls-2" d="M294.32,308.32l-28.14-4.64C257,302.18,248,299.95,239,298a42.73,42.73,0,0,0-24.29,1.53q-6.54,2.38-12.85,5.29a151.6,151.6,0,0,1-19.47,7.41c-16.91,5.15-34.29,7.64-51.85,9-15.15,1.19-30.34,1.57-45.54,1.55q-15.48,0-31,0H51.76a22.07,22.07,0,0,0,6,2.87c20.26,7.43,41.27,11.85,62.5,15.34,13.09,2.15,26.26,3.75,39.48,5,12.83,1.17,25.67,2,38.54,2.25,25.78.53,51.48-.37,77-4.79a182.29,182.29,0,0,0,35.81-9.6c8.6-3.39,16.74-7.6,23.88-13.54a14.28,14.28,0,0,0,3.1-3.06l-2.61-.71C321.9,312.93,308.12,310.58,294.32,308.32Z" transform="translate(-31.48 -18.4)"/><path class="cls-2" d="M511.4,326.18a40,40,0,0,0-9.56-4.92,124.7,124.7,0,0,0-23-5.73c-11.19-1.92-22.5-3-33.77-4.24-13.19-1.49-26.28-3.58-39.34-5.87a39.67,39.67,0,0,1-22.87-12.13c-2.62-2.81-5.37-5.49-8-8.3a177,177,0,0,0-23.7-22c-14.28-10.66-29.66-19.15-46.91-23.95-10.66-3-21.47-4.3-32.48-2.22a43,43,0,0,0-29,19.44,2.75,2.75,0,0,0-.7,1.6,2.49,2.49,0,0,0,.66,0c.59-.23,1.18-.5,1.77-.74a103.63,103.63,0,0,1,29.33-7.71,84.75,84.75,0,0,1,42,6.38c12.53,5.25,23.5,12.9,33.67,21.8a268.3,268.3,0,0,1,21.59,21.81,117.67,117.67,0,0,0,12.45,12.3A30.23,30.23,0,0,0,396.8,318c4.47.91,9,1.35,13.53,1.88,7.3.86,14.61,1.66,21.9,2.61,10.06,1.31,20.11,2.73,30.16,4.11l26.84,3.66c5.07.69,10.12,1.52,15.21,2,3.69.36,7.35,0,10.28-2.91A13.74,13.74,0,0,0,511.4,326.18Z" transform="translate(-31.48 -18.4)"/><path class="cls-2" d="M90.95,295.28a267.18,267.18,0,0,0,40.47-1.73,253.37,253.37,0,0,0,35.36-6.36A83.86,83.86,0,0,0,183,281.45a11.14,11.14,0,0,0,3.71-2.56c-48.28-.28-96.36-3.21-144.37-7.28a.32.32,0,0,0-.22.09c-.23.22.24.16-.19.25a16.84,16.84,0,0,1,1.86,4.64,6.46,6.46,0,0,0,1.86,3.54,38.27,38.27,0,0,0,18.26,11.39A120.12,120.12,0,0,0,90.95,295.28Z" transform="translate(-31.48 -18.4)"/><path class="cls-2" d="M64.11,307.1a48.37,48.37,0,0,0,6.45,3.16,82.91,82.91,0,0,0,26.86,5.62,208,208,0,0,0,44-2.48A263,263,0,0,0,183.21,303a61.72,61.72,0,0,0,12.16-5.59,2.5,2.5,0,0,0,1.44-2.28L63.14,306C63.14,306.83,63.74,306.88,64.11,307.1Z" transform="translate(-31.48 -18.4)"/><path class="cls-3" d="M295.88,386.45c-4.16,0-8.32,0-12.48,0a9.46,9.46,0,0,0-5.6,1.84c-.51.35-.87.95-1.89,1,0-1.27.06-2.38,0-3.48-.1-1.49.7-3.4-.38-4.35s-2.91-.17-4.41-.3c-1.18-.1-1.83.24-1.66,1.57a13.13,13.13,0,0,1,0,1.68q0,21.47,0,42.95c0,.64,0,1.28,0,1.92s-.25,1.07-1,1.07h-8.4c-.67,0-1.05-.27-1-1s0-1.28,0-1.92q0-19.56,0-39.11c0-1.86,0-1.87-1.78-1.9-.8,0-1.6,0-2.4,0-2.07,0-2.07,0-2.09,2.1,0,.4,0,.8,0,1.2q0,18.84,0,37.67c0,.56,0,1.12,0,1.68.06.9-.28,1.31-1.23,1.3q-4.56,0-9.12,0c-.93,0-1.3-.37-1.24-1.28,0-.56,0-1.12,0-1.68q0-19.08,0-38.15c0-.56,0-1.12,0-1.68,0-.81-.31-1.17-1.12-1.16-1.28,0-2.56.06-3.84,0s-1.56.47-1.46,1.57c.05.56,0,1.12,0,1.68q0,18.84,0,37.67c0,.56,0,1.12,0,1.68.08,1.06-.43,1.39-1.42,1.37q-3.24-.06-6.48,0c-1,0-1.52-.27-1.43-1.36,0-.56,0-1.12,0-1.68q0-17.52,0-35c0-1.52,0-3,0-4.56,0-.85-.17-1.34-1.17-1.33-4.64.05-9.28,0-13.91.1s-11.16,6.81-11.06,11.89c.26,12.47.08,25,.08,37.43,0,2.21,0,2.07,2.12,2.07h94.06c2.1,0,2.12,0,2.13-2.08q0-11.76,0-23.51,0-12,0-24C297.71,386.49,297.68,386.46,295.88,386.45ZM216.7,430.38c-3.12,0-6.23,0-9.35,0-1.26,0-1.62-.44-1.61-1.67,0-10.22,0-20.45.05-30.67,0-5.25,4.4-9.5,10-10.08,3.37-.35,3.37-.35,3.37,3.09q0,9.11,0,18.21,0,9.35,0,18.69C219.19,430.58,219.46,430.38,216.7,430.38Zm74.56-20.91q0,9.47,0,18.93c0,2,0,2.05-2.12,2.06q-5.63,0-11.26,0c-2,0-2,0-2.05-1.92,0-9.43,0-18.85,0-28.28a12.47,12.47,0,0,1,9.82-11.77c5.47-1.11,5.61-1,5.61,4.43Z" transform="translate(-31.48 -18.4)"/><path class="cls-3" d="M452.13,384.14c-3.44,0-6.88,0-10.32,0-2,0-2,0-2,2.14q-.12,9.48-.21,19c0,5.12.15,10.25-.15,15.35-.35,6-2.94,10-9.2,10-5.2,0-10.4,0-15.59.05-1.36,0-1.6-.57-1.56-1.72.06-1.68,0-3.36,0-5,0-8.08,0-16.15,0-24.23a7.13,7.13,0,0,1,1.92-5.26,4,4,0,0,1,6.59,1.1,8.08,8.08,0,0,1,.66,3.74q-.14,7.32-.21,14.63a5.22,5.22,0,0,0,.16,2.33,4.11,4.11,0,0,0,3.23-2,6.2,6.2,0,0,1,2.18-2.18c.9-.44.95-1.16.94-2,0-3.2-.09-6.4-.06-9.6a9.23,9.23,0,0,0-3.26-7.18,11.62,11.62,0,0,0-10-2.86,10.35,10.35,0,0,0-9.21,10.7q0,12.6,0,25.19c0,1,0,2.08,0,3.12s-.4,1.25-1.29,1.23c-2.16,0-4.32-.07-6.47,0-1.19,0-1.5-.45-1.48-1.56.05-2.88,0-5.76,0-8.64q0-16.07,0-32.15c0-2.07,0-2.09-2.11-2.1-3.36,0-6.72.09-10.08,0-6.28-.2-10.08,3.3-12.84,8.4a7.66,7.66,0,0,0-.87,3.7q0,19,0,37.91c0,1.66,0,1.69,1.75,1.7,3.52,0,7,0,10.56,0,16.31,0,32.63,0,48.94.07a12.82,12.82,0,0,0,9.72-3.84c.39-.39.8-.77,1.17-1.12a2.48,2.48,0,0,1,1.13,1,11.13,11.13,0,0,0,9.12,4c4.15-.12,8.32,0,12.47,0,2,0,2.06,0,2.06-2.12q0-19,0-37.91a11.21,11.21,0,0,0-2.71-7.5A16.45,16.45,0,0,0,452.13,384.14Zm-61.65,44.35c0,2.17,0,2.18-2.25,2.18-2.88,0-5.76,0-8.63,0-1.85,0-1.86,0-1.9-1.82,0-.24,0-.48,0-.72q0-13.31,0-26.62a14.73,14.73,0,0,1,2.24-8.21,11.78,11.78,0,0,1,8.65-5.41c1.79-.24,1.9-.09,1.9,1.75,0,6.56,0,13.11,0,19.67Q390.48,418.89,390.48,428.49ZM460.4,434c0,.67-.31,1-1.06.89-1.1-.21-2.23-.27-3.3-.58-2.33-.68-4.51-1.6-5.68-4a33.71,33.71,0,0,0-1.9-3,11.82,11.82,0,0,1-1.77-6.36c-.1-9.67-.31-19.33-.47-29a7.37,7.37,0,0,1,.22-2.88c1.74.15,3.41.27,5.07.45a6.94,6.94,0,0,1,1.62.42c3.42,1.26,6.94,6.2,7,9.83q.17,16.54.3,33.07C460.42,433.24,460.43,433.64,460.4,434Z" transform="translate(-31.48 -18.4)"/><path class="cls-3" d="M99.9,384.6c-4.4,0-8.8.12-13.2,0-3.64-.13-6.83.58-9.35,3.66-.81-1.22-1.18-2.32-2.15-3a1.77,1.77,0,0,0-2.73.18c-.83.76-1.57,1.6-2.42,2.33s-1.17,1.44-.28,2.37a4.66,4.66,0,0,1,1,3.55c-.05,5,0,9.92,0,14.88,0,6.72,0,13.44,0,20.16,0,1.18-.25,1.75-1.57,1.7-1.92-.07-3.84,0-5.75.07-1.14.05-1.57-.39-1.57-1.52,0-2.16-.1-4.32-.14-6.48q-.28-17.27-.54-34.55c0-1.84-.05-1.87-1.83-1.88q-6.72,0-13.44,0a14.21,14.21,0,0,0-9,3.37,10.54,10.54,0,0,0-4.21,8.72c.07,12.4,0,24.8,0,37.19,0,2,0,2,1.93,2h65c1.83,0,1.86,0,1.86-1.84q0-24.6,0-49.19C101.61,384.64,101.57,384.61,99.9,384.6ZM53.83,408.69h0q-.2,9.35-.4,18.7c0,.64-.09,1.28-.1,1.92a1,1,0,0,1-1.17,1.14q-5.27,0-10.55,0c-.85,0-1.14-.41-1.09-1.18,0-.08,0-.16,0-.24,0-10.55-.07-21.1.07-31.65.06-4.47,3.12-7,6.8-8.8a12.87,12.87,0,0,1,5.6-1.09c1.2,0,1.48.44,1.44,1.56C54.17,395.59,54,402.14,53.83,408.69Zm40.88,19.55c0,2.18,0,2.2-2.27,2.2q-6,0-12,0c-1.89,0-1.93,0-1.93-1.78,0-9.92-.06-19.84,0-29.76,0-6.34,5.88-12.25,12.42-12.79.64-.05,1.28-.06,1.92-.05,1.81,0,1.84,0,1.85,1.87q0,10.2,0,20.4Q94.72,418.29,94.72,428.25Z" transform="translate(-31.48 -18.4)"/><path class="cls-3" d="M171.47,381.89c-1.68,0-3.36,0-5,0-1,0-1.28.42-1.25,1.3,0,.56,0,1.12,0,1.68q0,20.87,0,41.74c0,.56,0,1.12,0,1.68.09,1.17-.46,1.53-1.57,1.48-1.76-.07-3.52,0-5.28,0-3.29,0-3.39-.08-4.26-3.17-.11-.38-.18-.78-.26-1.17a69.27,69.27,0,0,1-.94-11.22c-.17-5.83-.44-11.67-1.92-17.36a18.68,18.68,0,0,0-9-11.88A15.94,15.94,0,0,0,132,383c.1.3.11.49.21.56,5.69,4.3,9,10.28,11.79,16.62a11.85,11.85,0,0,1,.83,4c.43,5.74.24,11.51.85,17.25a56,56,0,0,1,.61,8.06,3.48,3.48,0,0,1-1.92.24q-13,0-25.91,0c-2.86,0-2.76.4-2.76-2.66q0-21.35,0-42.7c0-.56,0-1.12,0-1.68.06-1-.31-1.46-1.37-1.42-1.36,0-2.72,0-4.08,0-1.91,0-1.93,0-1.93,2q0,10.92,0,21.83,0,15.23,0,30.47c0,1.86,0,1.87,1.81,1.91.48,0,1,0,1.44,0,12.07,0,24.15,0,36.22-.05a4.45,4.45,0,0,1,4,1.58,10.77,10.77,0,0,0,2.73,1.93c4.38,2.87,9.44,3.56,14.88,4.76a98,98,0,0,1-9-8.21h10.23c2.32,0,2.32,0,2.34-2.35,0-.16,0-.32,0-.48q0-24.95,0-49.9c0-.48,0-1,0-1.44C173,382.2,172.45,381.88,171.47,381.89Z" transform="translate(-31.48 -18.4)"/><path class="cls-3" d="M537,383.88c0-.48,0-1,0-1.44,0-.82-.36-1.13-1.16-1.12-1.76,0-3.52,0-5.28,0-.93,0-1.31.36-1.26,1.27,0,.56,0,1.12,0,1.68q0,21,0,42c0,.56,0,1.12,0,1.68.06.93-.37,1.27-1.28,1.25-1.6,0-3.2,0-4.8,0-2.87,0-3-.07-3.81-2.82a30,30,0,0,1-.71-3.52,67.45,67.45,0,0,1-.54-8.13c-.27-6.39-.39-12.8-1.88-19.06a18.46,18.46,0,0,0-10.64-13.1,14.93,14.93,0,0,0-8.66-1.09c1.22,1.06,2.31,1.88,3.25,2.85a45.33,45.33,0,0,1,9.21,14.76,11.9,11.9,0,0,1,.69,3.52c.55,6.77.64,13.58,1.31,20.34.2,2,.56,4.06.65,6.12a6.41,6.41,0,0,1-.83.12c-8,0-16,0-24,0-1.22,0-1.81-.33-1.66-1.62a12.6,12.6,0,0,0,0-1.44c0-13.28,0-26.55,0-39.83,0-1.8.41-3.65-.31-5.41a56.8,56.8,0,0,0-5.73-.25c-1-.08-1.3.35-1.23,1.25,0,.4,0,.8,0,1.2q0,25.67,0,51.35c0,.48,0,1,0,1.44,0,.7.34,1,1,1s1.12,0,1.68,0c10,0,20,.06,30-.08,2.49,0,4.53.23,5.85,2.58a5.62,5.62,0,0,0,1.19,1.17c3.54,3.27,8,4.47,12.51,5.66l.16-.14a5.13,5.13,0,0,0-1.56-2.36c-1.28-1.43-2.69-2.74-4-4.15a3.76,3.76,0,0,1-1.42-2.67H534.4c2.76,0,2.55.26,2.55-2.61Q537,409.07,537,383.88Z" transform="translate(-31.48 -18.4)"/><path class="cls-3" d="M347.81,383.2c0-.56,0-1.12,0-1.68,0-.81-.33-1.16-1.14-1.14-1.12,0-2.24,0-3.36,0-2.71,0-2.56-.28-2.56,2.61q0,22.66,0,45.33c0,.56,0,1.12,0,1.68.09,1.08-.43,1.34-1.42,1.31-1.92,0-3.84,0-5.75,0s-2,0-2-1.95c0-6.48-.07-13-.11-19.43q-.08-11.39-.18-22.78c0-1.87-.06-1.9-1.84-1.92-3.28,0-6.56,0-9.83,0-7.53-.12-13,7-13,12.86q.06,15.47.43,30.93a8.81,8.81,0,0,0,6.23,8.53,18.33,18.33,0,0,0,8.71,1.12c1.16-.15,1.34.29,1.5,1.19.58,3.2-.62,5.77-3.62,7.71a37.11,37.11,0,0,1-5.74,2.58c6.32,1.87,12.85-.51,15.49-6.82.49-1.18,1.18-2.27,1.65-3.46a2.12,2.12,0,0,1,2.34-1.51c3.84.07,7.67,0,11.51,0,3,0,2.69.27,2.69-2.69Q347.82,409.47,347.81,383.2ZM323.41,438a24.27,24.27,0,0,1-8.81-7,4.44,4.44,0,0,1-.68-2.74q-.14-17.13-.29-34.26a4,4,0,0,1,1.24-3c2-2.09,4.28-3.54,7.44-2.66.86.24,1.2.52,1.2,1.39,0,1.92.07,3.83.09,5.75q.13,20.36.24,40.73A2,2,0,0,1,323.41,438Z" transform="translate(-31.48 -18.4)"/><path class="cls-3" d="M360.89,381.15c-1.09-1.12-3.17-.36-4.82-.4-1.84,0-1.85,0-1.89,1.81,0,.32,0,.64,0,1q0,26.13,0,52.26c0,.16,0,.32,0,.48,0,2.25,0,2.26,2.16,2.27H359c2.61,0,2.23-.05,2.23-2.18q0-13.31,0-26.61c0-8,0-16,0-24C361.18,384.19,361.88,382.16,360.89,381.15Z" transform="translate(-31.48 -18.4)"/><path class="cls-3" d="M185.43,381.66c-1.36,0-2.72.06-4.07,0-1.19-.07-1.84.27-1.65,1.58a6.69,6.69,0,0,1,0,1q0,25.29,0,50.59c0,.56,0,1.12,0,1.68a.8.8,0,0,0,.9.87h5a.8.8,0,0,0,.9-.86c0-.56,0-1.12,0-1.68q0-12.59,0-25.17t0-25.17c0-.56,0-1.12,0-1.68C186.63,381.91,186.21,381.64,185.43,381.66Z" transform="translate(-31.48 -18.4)"/><path class="cls-3" d="M551.38,382.92c0-1.86,0-1.88-1.8-1.91-1.12,0-2.24,0-3.36,0-1.66,0-1.7,0-1.7,1.76,0,5,0,9.91,0,14.86q0,18.57,0,37.15c0,1.85,0,1.86,1.8,1.89,1,0,2.08,0,3.12,0,1.92,0,1.94,0,1.94-2q0-12.82,0-25.64Q551.39,396,551.38,382.92Z" transform="translate(-31.48 -18.4)"/><path class="cls-3" d="M502.72,440.5a3.18,3.18,0,0,0,0,6.36,3.18,3.18,0,1,0,0-6.36Z" transform="translate(-31.48 -18.4)"/><path class="cls-3" d="M381.18,380.29a3.16,3.16,0,0,0,3.29-3.08,3.09,3.09,0,0,0-3.13-3.21,3.19,3.19,0,0,0-3.21,3.16A3.29,3.29,0,0,0,381.18,380.29Z" transform="translate(-31.48 -18.4)"/><path class="cls-3" d="M234.28,440.54a3.18,3.18,0,0,0-.16,6.36,3.18,3.18,0,1,0,.16-6.36Z" transform="translate(-31.48 -18.4)"/><path class="cls-3" d="M241.31,440.44a3.14,3.14,0,0,0-3.05,3.31,3.08,3.08,0,0,0,3.06,3,3.2,3.2,0,0,0,3.23-3.16A3.28,3.28,0,0,0,241.31,440.44Z" transform="translate(-31.48 -18.4)"/><path class="cls-3" d="M42.58,380.33A3.15,3.15,0,1,0,42.7,374a3.14,3.14,0,0,0-.12,6.28Z" transform="translate(-31.48 -18.4)"/><path class="cls-3" d="M49.55,380.3A3.16,3.16,0,0,0,52.63,377a3.08,3.08,0,0,0-3.33-3,3.14,3.14,0,0,0-3,3.13A3.22,3.22,0,0,0,49.55,380.3Z" transform="translate(-31.48 -18.4)"/><path class="cls-3" d="M255.27,380.33a3.15,3.15,0,1,0,.11-6.29,3.09,3.09,0,0,0-3.13,3A3.12,3.12,0,0,0,255.27,380.33Z" transform="translate(-31.48 -18.4)"/><path class="cls-3" d="M388.74,380.32a3.22,3.22,0,0,0,3.15-3.24,3.18,3.18,0,0,0-3.32-3,3.14,3.14,0,0,0,.18,6.28Z" transform="translate(-31.48 -18.4)"/><path class="cls-3" d="M216.82,380.32a3.21,3.21,0,0,0,3.26-3.12,3.15,3.15,0,0,0-3.2-3.16,3,3,0,0,0-3.09,3A3.1,3.1,0,0,0,216.82,380.32Z" transform="translate(-31.48 -18.4)"/><path class="cls-3" d="M210,380.35a3.14,3.14,0,0,0-.08-6.29,3.14,3.14,0,1,0,.08,6.29Z" transform="translate(-31.48 -18.4)"/><path class="cls-3" d="M139.29,380.41a3,3,0,0,0,3.18-3.13,3.12,3.12,0,0,0-3.18-3.16,3.24,3.24,0,0,0-3.1,3.29A3.12,3.12,0,0,0,139.29,380.41Z" transform="translate(-31.48 -18.4)"/><path class="cls-4" d="M47.56,463.42a11.07,11.07,0,0,0-.78-1.75,3.52,3.52,0,0,0-6.36,0,19.36,19.36,0,0,0-1.2,2.87c-2.19,6-4.36,12-6.58,18-.21.55,0,1.58-1.17,1.45v3.36c.43-.33.68,0,1,.24,2,1.36,3.13,1.06,4.07-1.16a38.12,38.12,0,0,0,1.27-3.61,1.83,1.83,0,0,1,2-1.53q3.71.12,7.43,0a1.8,1.8,0,0,1,2,1.52,29.74,29.74,0,0,0,1.54,4,2.25,2.25,0,0,0,2.9,1.46,2.62,2.62,0,0,0,1.75-2.81,8.25,8.25,0,0,0-.68-2.54Q51.24,473.17,47.56,463.42Zm-6.78,13.66c-1,0-.78-.79-.59-1.39.78-2.42,1.56-4.84,2.4-7.23a4.81,4.81,0,0,1,1.12-2.33l3.71,11C45,477.09,42.9,477.13,40.78,477.08Z" transform="translate(-31.48 -18.4)"/><path class="cls-4" d="M548.08,469.81c-.22.6-.4,1.21-.6,1.82l-2.88,8.86a3,3,0,0,1-.94,1.68c-.86-2.67-1.65-5.17-2.46-7.66-.62-1.89-1.22-3.79-1.92-5.65a2,2,0,0,0-2.46-1.37A2.43,2.43,0,0,0,535,470a6.93,6.93,0,0,0,.64,2.29c1.72,4.72,3.36,9.46,5.23,14.12.76,1.89-.08,3.24-.86,4.69s-2,1.16-3.17,1a2.68,2.68,0,0,0-.48,0c-.76,0-1.47.2-1.74,1a2,2,0,0,0,.55,2.39,7.17,7.17,0,0,0,1.28.65l3.85,0a6.45,6.45,0,0,0,4.74-4.62c2.35-6.69,5-13.28,6.94-20.09,0-.13.21-.23.31-.34v-2.88C549.82,466.89,549.07,467.18,548.08,469.81Z" transform="translate(-31.48 -18.4)"/><path class="cls-4" d="M109.3,459.74a2.12,2.12,0,0,0-2.57,1.62c-.56,1.83-.91,3.72-1.31,5.59-.83,3.89-1.63,7.79-2.48,11.83a3.8,3.8,0,0,1-.92-2.12q-1.64-6.5-3.3-13a14.8,14.8,0,0,0-.55-1.83,3.06,3.06,0,0,0-2.9-2.13,3.17,3.17,0,0,0-3.18,2.11,14.38,14.38,0,0,0-.63,2.06q-1.67,6.62-3.32,13.25c-.13.53-.12,1.13-.84,1.52-.53-2.51-1-5-1.57-7.43-.69-3.2-1.32-6.42-2.1-9.59A2.16,2.16,0,0,0,81,459.74a2.43,2.43,0,0,0-2,2.58,9.46,9.46,0,0,0,.27,2.13q2.26,9.93,4.54,19.85a8.64,8.64,0,0,0,.94,2.7,3,3,0,0,0,4.37.8,4.35,4.35,0,0,0,1.39-2.46c.68-2.63,1.34-5.26,2-7.89.81-3.17,1.63-6.34,2.59-10.06.36,1.09.56,1.6.69,2.13,1.27,5,2.53,10.07,3.81,15.1a10.91,10.91,0,0,0,.67,2,2.88,2.88,0,0,0,2.88,1.75,2.77,2.77,0,0,0,2.61-1.78,11.14,11.14,0,0,0,.64-2.05q1.9-8.17,3.78-16.34c.27-1.17.58-2.33.79-3.5a13.06,13.06,0,0,0,.28-2.61A2.32,2.32,0,0,0,109.3,459.74Z" transform="translate(-31.48 -18.4)"/><path class="cls-4" d="M402.48,461.53a2.37,2.37,0,0,0-2.5-1.83,2.29,2.29,0,0,0-2.23,1.85,13,13,0,0,0-.22,2.62c0,4,0,8,0,12a14.12,14.12,0,0,1-.54,4.5c-.78,2.34-2.41,3.34-5.23,3.28s-4.41-1.22-5-3.59a15.78,15.78,0,0,1-.47-4c0-4.16,0-8.32,0-12.47a9.51,9.51,0,0,0-.21-2.37,2.29,2.29,0,0,0-2.31-1.76,2.32,2.32,0,0,0-2.37,1.67A7.58,7.58,0,0,0,381,464c0,3.92,0,7.84,0,11.75a29.85,29.85,0,0,0,.35,4.54c.7,4.75,3.41,7.41,8.19,8a24.26,24.26,0,0,0,3.59.11c5.52-.17,8.89-3.39,9.4-8.88.26-2.79.14-5.59.17-8,0-2.82,0-5.22,0-7.62A10,10,0,0,0,402.48,461.53Z" transform="translate(-31.48 -18.4)"/><path class="cls-4" d="M262.61,460.43a30,30,0,0,0-5.43-.31h-4.62c-2.44.16-3.21.93-3.4,3.4,0,.32,0,.64,0,1q0,9.83,0,19.66a7.57,7.57,0,0,0,.32,2.6,2.44,2.44,0,0,0,4.58.06,6.63,6.63,0,0,0,.29-2.12c0-1.92,0-3.84,0-5.75,0-1.72,0-1.75,1.71-1.77a30.77,30.77,0,0,0,6.45-.39c2.85-.64,5-2.16,5.8-5.09a10.89,10.89,0,0,0,0-6.37A6.75,6.75,0,0,0,262.61,460.43Zm-2.75,12.3-.47.1c-4.82.73-5.07.52-5.07-4.29,0-.32,0-.64,0-1,.05-3.67-.51-3.18,3.37-3.21a12.27,12.27,0,0,1,2.14.14c2.55.44,3.53,1.54,3.59,4S262.46,472.19,259.86,472.73Z" transform="translate(-31.48 -18.4)"/><path class="cls-4" d="M163.21,476.83a33.49,33.49,0,0,0-.24-4.3,5.28,5.28,0,0,0-4.58-4.85,15.08,15.08,0,0,0-6.66,0,7.31,7.31,0,0,0-3.92,2.18,4.25,4.25,0,0,0-1.2,3.28,1.79,1.79,0,0,0,1.44,1.7,1.64,1.64,0,0,0,1.91-.62c.27-.4.5-.82.78-1.21a5.1,5.1,0,0,1,5.75-1.84,2.87,2.87,0,0,1,1.87,2.79c.07,1.33-1,1.22-1.78,1.45-1.07.32-2.16.57-3.24.85a39.37,39.37,0,0,0-3.94,1,5.53,5.53,0,0,0-3.64,6.28,5.73,5.73,0,0,0,5.23,4.81,9.06,9.06,0,0,0,5.73-1.31,5.57,5.57,0,0,1,2.13-1.2c.18.21.39.44.58.68s.38.52.57.77a2.15,2.15,0,0,0,2.71.89,2.1,2.1,0,0,0,1.17-2.81C163.06,482.56,163.24,479.7,163.21,476.83Zm-5.17,5.3a4.66,4.66,0,0,1-4.76,2.88,2.83,2.83,0,0,1-2.7-2.27,2.51,2.51,0,0,1,1.79-3c1.87-.63,3.81-1,6-1.61A7.08,7.08,0,0,1,158,482.12Z" transform="translate(-31.48 -18.4)"/><path class="cls-4" d="M130.08,477.25c-.06-1.25-.05-2.93-.24-4.59a5.2,5.2,0,0,0-4-4.83,14.32,14.32,0,0,0-7.81,0,6.21,6.21,0,0,0-4.19,3.31c-.67,1.46-.45,2.86.52,3.47s1.93.3,3-1.29l.13-.2a5,5,0,0,1,5.7-2,2.87,2.87,0,0,1,2,2.94c0,1.31-1.13,1.15-1.9,1.37-1.22.36-2.48.61-3.71.93a33.08,33.08,0,0,0-3.23.86,5.49,5.49,0,0,0-3.76,6.21,5.69,5.69,0,0,0,5.35,4.94,9.18,9.18,0,0,0,5.92-1.51c1.66-1.07,1.67-1.05,2.91.35,1,1.17,1.89,1.44,2.9.93a2.17,2.17,0,0,0,1.06-2.87A22.93,22.93,0,0,1,130.08,477.25Zm-4.76,2.4c-.19,3.46-2.1,5.49-5.05,5.36a2.79,2.79,0,0,1-2.85-2.36,2.51,2.51,0,0,1,1.87-2.93c1.5-.51,3.06-.84,4.6-1.23S125.4,478.21,125.32,479.65Z" transform="translate(-31.48 -18.4)"/><path class="cls-4" d="M333.76,477.92a26.72,26.72,0,0,0-.34-5.74,5,5,0,0,0-3.27-4.11,13.33,13.33,0,0,0-9.61.2,5.51,5.51,0,0,0-3.25,3.33c-.5,1.43-.13,2.62.93,3.12s1.76.14,2.71-1.22c.14-.2.25-.41.39-.6a5.17,5.17,0,0,1,5.8-1.7,3.08,3.08,0,0,1,1.82,2.87c0,1.3-1.15,1.14-1.91,1.35-2.08.56-4.2,1-6.28,1.55-3.18.88-5,3.47-4.51,6.42s2.81,4.91,6.07,5c2.65.09,4.75-1.15,7-2.74.47.62.79,1.08,1.15,1.5,1,1.19,1.91,1.48,2.89,1s1.47-1.39,1-2.87A25.78,25.78,0,0,1,333.76,477.92Zm-5,3.6a4.65,4.65,0,0,1-5,3.47,2.85,2.85,0,0,1-2.64-2.36,2.49,2.49,0,0,1,1.69-2.83c1.95-.66,4-1.1,6.09-1.67A6.29,6.29,0,0,1,328.72,481.52Z" transform="translate(-31.48 -18.4)"/><path class="cls-4" d="M235,475.9a18.61,18.61,0,0,0-.38-4,5.15,5.15,0,0,0-4-4.06,14.17,14.17,0,0,0-7.59,0,6.12,6.12,0,0,0-4.44,3.69c-.54,1.45-.26,2.62.74,3.17s2,.29,2.86-1.25c1.31-2.21,3.27-2.66,5.56-2.34a2.76,2.76,0,0,1,2.39,2.86c.08,1.5-1.18,1.29-2,1.52-2.31.64-4.68,1.07-6.95,1.82a5.32,5.32,0,0,0-3.68,6,5.62,5.62,0,0,0,5.21,5.08,9,9,0,0,0,5.74-1.31,6.31,6.31,0,0,1,2-1.2c.68.38.94,1.1,1.42,1.62a2.13,2.13,0,0,0,2.56.73,2,2,0,0,0,1.23-2.55C234.69,482.45,235.06,479.16,235,475.9Zm-5,5.61a4.72,4.72,0,0,1-5.25,3.47,2.65,2.65,0,0,1-2.37-2.3,2.36,2.36,0,0,1,1.58-2.86c1.94-.67,4-1.11,6.08-1.68A6.82,6.82,0,0,1,230,481.5Z" transform="translate(-31.48 -18.4)"/><path class="cls-4" d="M211.5,468.85c-.92,2.29-1.63,4.67-2.42,7-.69,2.06-1.37,4.12-2.06,6.23a1.86,1.86,0,0,1-.85-1.35q-1.64-5.13-3.29-10.26a12.28,12.28,0,0,0-.69-1.78,1.94,1.94,0,0,0-2.34-1.21,2.3,2.3,0,0,0-1.85,2.22,5.93,5.93,0,0,0,.61,2.54c1.72,4.72,3.38,9.47,5.25,14.14.75,1.88-.1,3.24-.88,4.69s-2,1.13-3.18,1a2.9,2.9,0,0,0-.48,0c-.76,0-1.47.21-1.72,1a2,2,0,0,0,.6,2.38,7.82,7.82,0,0,0,1.29.63l3.85,0a6.32,6.32,0,0,0,4.52-4.24c.2-.52.44-1,.63-1.55q3.16-8.91,6.29-17.84a17.49,17.49,0,0,0,.65-2.54,2,2,0,0,0-.5-1.78A2,2,0,0,0,211.5,468.85Z" transform="translate(-31.48 -18.4)"/><path class="cls-4" d="M465.09,479.19c2.4,0,4.8.05,7.19,0,2.81-.1,3.73-1.23,3.41-4a8.48,8.48,0,0,0-7.77-7.82,8.81,8.81,0,0,0-9.55,5.65,13.91,13.91,0,0,0-.45,8.26,9.7,9.7,0,0,0,15.1,5.43,6.6,6.6,0,0,0,1.8-1.9c.79-1.31.82-2.44.09-3.08s-1.64-.5-2.91.65c-.59.54-1.17,1.09-1.8,1.57a4.74,4.74,0,0,1-2.65,1c-2.92.17-4.78-1.85-5-5.78Zm-2.5-4.14c.39-2.53,2.23-4.18,4.51-4s3.77,1.94,3.8,5.24c-2.46,0-4.92,0-7.38,0C462.63,476.27,462.47,475.82,462.59,475Z" transform="translate(-31.48 -18.4)"/><path class="cls-4" d="M357.08,479.2c2.4,0,4.8,0,7.19,0,2.8-.1,3.67-1.18,3.38-4a8.4,8.4,0,0,0-7.3-7.72,8.79,8.79,0,0,0-9.71,4.94,13.45,13.45,0,0,0-.66,9.15,9.7,9.7,0,0,0,15,5.17,6.68,6.68,0,0,0,1.79-1.91c.79-1.31.81-2.44.06-3.07s-1.64-.47-2.91.68c-.65.59-1.31,1.17-2,1.7a4.37,4.37,0,0,1-2.45.87c-2.93.16-4.79-1.88-4.94-5.58A6.89,6.89,0,0,1,357.08,479.2Zm1.41-8.19c2.68-.15,4.18,1.53,4.44,5.11h-8.26C354.66,473.07,356.11,471.15,358.49,471Z" transform="translate(-31.48 -18.4)"/><path class="cls-4" d="M185,476a20.08,20.08,0,0,0-.15-3.1c-.66-4-3.83-6.12-7.85-5.33a9,9,0,0,0-4.2,2.57c-.55-.4-.52-1-.77-1.5a2.11,2.11,0,0,0-4,.45,7.73,7.73,0,0,0-.21,2.13q0,6.59,0,13.17a9.25,9.25,0,0,0,.1,1.67c.31,1.64,1.19,2.43,2.52,2.32s2-.92,2.12-2.45c.1-1.27,0-2.55.05-3.83a49.38,49.38,0,0,1,.24-6.69,4.46,4.46,0,0,1,2.24-3.48c2.15-1.21,4.12-.32,4.77,2.08a10.88,10.88,0,0,1,.29,2.85c0,3,0,5.91,0,8.86.05,1.77,1,2.71,2.42,2.68s2.12-.92,2.31-2.56a12.32,12.32,0,0,0,0-1.44C185.05,481.59,185.06,478.79,185,476Z" transform="translate(-31.48 -18.4)"/><path class="cls-4" d="M424.77,472.64c-.77-3.82-3.73-5.77-7.58-5.11a8.54,8.54,0,0,0-4.37,2.59c-.62-.31-.53-.86-.71-1.28a2.08,2.08,0,0,0-2.26-1.39,2.11,2.11,0,0,0-1.87,1.9,8.18,8.18,0,0,0-.11,1.67q0,6.82,0,13.65a7.48,7.48,0,0,0,.2,1.89,2.16,2.16,0,0,0,2.19,1.84,2.24,2.24,0,0,0,2.29-2,13,13,0,0,0,.1-2.15c0-2.63,0-5.27.1-7.9a5,5,0,0,1,2-4.18c2.16-1.53,4.54-.66,5.16,1.87a12.51,12.51,0,0,1,.32,3.09c0,2.55,0,5.11,0,7.66a5.28,5.28,0,0,0,.24,2.12,2.2,2.2,0,0,0,2.22,1.5,2.11,2.11,0,0,0,2-1.44,5.21,5.21,0,0,0,.34-2.11c0-2.08,0-4.15,0-6.23A32.37,32.37,0,0,0,424.77,472.64Z" transform="translate(-31.48 -18.4)"/><path class="cls-4" d="M506.82,477a23.45,23.45,0,0,0-4.75-1.61,11.88,11.88,0,0,1-2.69-1,1.78,1.78,0,0,1-1-1.75,1.89,1.89,0,0,1,1.27-1.6,3.87,3.87,0,0,1,4.42.78c.57.56,1,1.24,1.6,1.78a2.05,2.05,0,0,0,3.35-2.19,4.26,4.26,0,0,0-1.46-2.15c-2.69-2.32-8.39-2.57-11.28-.5a5.25,5.25,0,0,0,.37,9.12,18.42,18.42,0,0,0,4.23,1.63,17.59,17.59,0,0,1,3.16,1.1,2.16,2.16,0,0,1,1.27,2.12,2.2,2.2,0,0,1-1.51,2,4.92,4.92,0,0,1-5.46-1.28,17.64,17.64,0,0,1-1.06-1.59,1.8,1.8,0,0,0-2.23-.93,2,2,0,0,0-1.37,2.25,4.85,4.85,0,0,0,2.34,3.71,9,9,0,0,0,5.66,1.5,10.5,10.5,0,0,0,4.7-.81,5.92,5.92,0,0,0,3.67-5.44C510.21,479.65,508.86,478.11,506.82,477Z" transform="translate(-31.48 -18.4)"/><path class="cls-4" d="M534.66,485.27c-.4-1.13-1.24-1.26-2.32-1.1-2.4.35-2.83,0-2.91-2.38s0-4.79,0-7.18a7.26,7.26,0,0,1,.19-2.59c.35-.86,1.44-.33,2.17-.58s1.41-.72,1.43-1.68a1.74,1.74,0,0,0-1.49-1.87,3.1,3.1,0,0,0-.95-.1c-1,.07-1.4-.4-1.36-1.41a26.88,26.88,0,0,0-.09-3.59,2.3,2.3,0,0,0-2.21-2.36c-1.24-.05-2.12.69-2.34,2.22a24.12,24.12,0,0,0-.16,3.58c0,.87-.06,1.53-1.15,1.7a1.82,1.82,0,0,0,.13,3.6c.88.08,1,.58,1,1.29,0,1.68,0,3.35,0,5h.08c0,1.76,0,3.51,0,5.27a13.79,13.79,0,0,0,.21,1.66,3.62,3.62,0,0,0,2.24,3.16,8.22,8.22,0,0,0,6.29-.12A2,2,0,0,0,534.66,485.27Z" transform="translate(-31.48 -18.4)"/><path class="cls-4" d="M346.06,484.24c-2.26.3-2.65,0-2.71-2.37-.06-2.63,0-5.27,0-7.91,0-2,0-2,2-2.48.94-.21,1.65-.63,1.77-1.66a1.9,1.9,0,0,0-1.69-2,2.05,2.05,0,0,0-.71-.06c-1.28.16-1.43-.59-1.39-1.61a21.24,21.24,0,0,0-.08-3.11c-.2-1.8-1.1-2.71-2.47-2.65s-2,.92-2.18,2.65a30.12,30.12,0,0,0-.07,3.11c0,.87-.07,1.53-1.15,1.71a1.71,1.71,0,0,0-1.57,1.81,1.66,1.66,0,0,0,1.57,1.79c1.17.11,1.15.86,1.14,1.7,0,1.68,0,3.36,0,5h.17c0,2.08-.08,4.15,0,6.22a3.68,3.68,0,0,0,2.65,3.62,8.57,8.57,0,0,0,5.64-.16,2.15,2.15,0,0,0,1.6-2.57C348.29,484.37,347.55,484,346.06,484.24Z" transform="translate(-31.48 -18.4)"/><path class="cls-4" d="M453.74,467.49a1.77,1.77,0,0,0-2.18,1,24.9,24.9,0,0,0-1,2.67c-1.19,3.44-2.37,6.89-3.55,10.34l-.52-.06c-1.07-3.24-2.13-6.49-3.21-9.73-.35-1.06-.72-2.12-1.16-3.14a1.82,1.82,0,0,0-2.36-1.1,2.13,2.13,0,0,0-1.72,2,4.92,4.92,0,0,0,.43,2.09c1.77,4.7,3.53,9.41,5.31,14.11a6.31,6.31,0,0,0,.74,1.49,2.67,2.67,0,0,0,4.45,0,7.24,7.24,0,0,0,.85-1.71c1.74-4.63,3.45-9.27,5.19-13.9a5.38,5.38,0,0,0,.44-2.09A2,2,0,0,0,453.74,467.49Z" transform="translate(-31.48 -18.4)"/><path class="cls-4" d="M142.68,484.15c-2.66.33-3,0-3.08-2.7-.05-2.4,0-4.8,0-7.2,0-2.22,0-2.22,2.22-2.8a3.67,3.67,0,0,0,.46-.14,1.62,1.62,0,0,0,1.14-1.64,1.6,1.6,0,0,0-1.12-1.66,3.78,3.78,0,0,0-1.4-.23c-1.12.07-1.34-.51-1.3-1.47a30.13,30.13,0,0,0,0-3.36c-.12-1.63-1-2.53-2.3-2.55s-2.09.73-2.31,2.28a23.26,23.26,0,0,0-.13,3.35c0,.91.05,1.71-1.2,1.89a1.63,1.63,0,0,0-1.45,1.89,1.57,1.57,0,0,0,1.45,1.64c1.15.08,1.21.74,1.2,1.61,0,1.6,0,3.2,0,5a41.24,41.24,0,0,0,.3,6.71,4.15,4.15,0,0,0,1.66,2.81c1.49,1.05,5.62,1.06,7.16,0a2,2,0,0,0,.92-2.47C144.46,484.17,143.66,484,142.68,484.15Z" transform="translate(-31.48 -18.4)"/><path class="cls-4" d="M312.52,467.48a1.78,1.78,0,0,0-2.17,1.06,23.42,23.42,0,0,0-1,2.44c-1.2,3.45-2.37,6.9-3.56,10.36l-.59.05q-1.73-5.18-3.46-10.35a20.22,20.22,0,0,0-.82-2.24,1.93,1.93,0,0,0-2.48-1.28,2.17,2.17,0,0,0-1.67,2.32,6.64,6.64,0,0,0,.58,2.31q2.42,6.5,4.87,13a7.13,7.13,0,0,0,1.18,2.34,2.74,2.74,0,0,0,3.86.28,3.91,3.91,0,0,0,1-1.59q2.82-7.5,5.6-15a4.64,4.64,0,0,0,.28-1.63A2,2,0,0,0,312.52,467.48Z" transform="translate(-31.48 -18.4)"/><path class="cls-4" d="M63.7,461.54a2.22,2.22,0,0,0-2.21-1.85,2.15,2.15,0,0,0-2.2,1.84,11.42,11.42,0,0,0-.21,2.38c0,3.28,0,6.56,0,9.83q0,5.28,0,10.55a7.11,7.11,0,0,0,.31,2.61,2.09,2.09,0,0,0,2,1.47,2.14,2.14,0,0,0,2.23-1.47,6.43,6.43,0,0,0,.32-2.36q0-10.55,0-21.11A9.39,9.39,0,0,0,63.7,461.54Z" transform="translate(-31.48 -18.4)"/><path class="cls-4" d="M285,468.56a4.57,4.57,0,0,0-6.45.35c-.32.34-.48.85-1.07,1-.11-.36-.21-.73-.35-1.08a2,2,0,0,0-2.26-1.37,2.11,2.11,0,0,0-1.89,1.89,9.08,9.08,0,0,0-.14,1.67q0,7,0,13.91a6.72,6.72,0,0,0,.22,1.89,2.06,2.06,0,0,0,1.9,1.58,2.15,2.15,0,0,0,2.3-1.36,6.21,6.21,0,0,0,.39-2.59c0-2.4.07-4.8.09-7.19a9.73,9.73,0,0,1,.62-3.28,2.73,2.73,0,0,1,3.37-2c.47.07.92.26,1.38.37,1.35.3,2.15,0,2.62-1A2.31,2.31,0,0,0,285,468.56Z" transform="translate(-31.48 -18.4)"/><path class="cls-4" d="M491.43,468.19c-2.39-1.45-4.3-1-6.9,1.74-.27-.65-.41-1.09-.63-1.5a1.91,1.91,0,0,0-2-1,2,2,0,0,0-1.78,1.39,5.42,5.42,0,0,0-.31,1.63c0,5,0,10.07,0,15.1,0,1.83.89,2.79,2.27,2.83s2.39-1,2.48-2.91c.08-1.67,0-3.36,0-5a22.23,22.23,0,0,1,.5-5.71c.65-2.43,1.81-3.16,4.22-2.63a13.36,13.36,0,0,0,1.38.38,1.87,1.87,0,0,0,2.15-1.73A2.48,2.48,0,0,0,491.43,468.19Z" transform="translate(-31.48 -18.4)"/><path class="cls-4" d="M518.74,469.36a2.26,2.26,0,0,0-2.36-1.94,2.18,2.18,0,0,0-2.12,1.93,11.1,11.1,0,0,0-.19,1.9q0,6.59,0,13.18a9.38,9.38,0,0,0,.12,1.67c.28,1.55,1.06,2.3,2.3,2.3s2.07-.77,2.31-2.28a12.56,12.56,0,0,0,.1-1.91c0-2.08,0-4.15,0-6.23,0-2.24,0-4.47,0-6.71A9.29,9.29,0,0,0,518.74,469.36Z" transform="translate(-31.48 -18.4)"/><path class="cls-4" d="M434.23,468.89a2.2,2.2,0,0,0-2.24-1.47,2.09,2.09,0,0,0-2.06,1.7,9.86,9.86,0,0,0-.18,2.14c0,2.24,0,4.47,0,6.71,0,2.08,0,4.15,0,6.23a12,12,0,0,0,.17,2.38,2.07,2.07,0,0,0,2,1.79,2.16,2.16,0,0,0,2.38-1.59,6.13,6.13,0,0,0,.3-2.12q0-6.83,0-13.66A5.44,5.44,0,0,0,434.23,468.89Z" transform="translate(-31.48 -18.4)"/><path class="cls-4" d="M293.32,477.91c0-2.07,0-4.15,0-6.22a14.38,14.38,0,0,0-.06-1.67c-.2-1.65-1-2.55-2.29-2.6s-2.13.82-2.38,2.47a4.82,4.82,0,0,0-.07.71c0,4.86,0,9.73,0,14.59,0,2.21.92,3.22,2.41,3.18s2.26-1.06,2.32-3.29c.07-2.39,0-4.78,0-7.17Z" transform="translate(-31.48 -18.4)"/><path class="cls-4" d="M194.32,469a2.29,2.29,0,0,0-2.21-1.54,2.25,2.25,0,0,0-2.18,1.88,9.5,9.5,0,0,0-.12,1.91c0,2.24,0,4.47,0,6.71s0,4.47,0,6.71a8.43,8.43,0,0,0,.14,1.9,2.25,2.25,0,0,0,4.36.32,4.81,4.81,0,0,0,.31-1.88q0-7.07,0-14.14A4.92,4.92,0,0,0,194.32,469Z" transform="translate(-31.48 -18.4)"/><path class="cls-4" d="M75.74,475.64a30.32,30.32,0,0,0-6.65,0A2.12,2.12,0,0,0,67,478a2.16,2.16,0,0,0,2.17,2.1c1,.1,2.06,0,3.09,0s2.23.08,3.33,0a2,2,0,0,0,2-2.18A2,2,0,0,0,75.74,475.64Z" transform="translate(-31.48 -18.4)"/><path class="cls-4" d="M432.1,465a2.5,2.5,0,1,0-2.33-2.45A2.27,2.27,0,0,0,432.1,465Z" transform="translate(-31.48 -18.4)"/><path class="cls-4" d="M192.26,464.95a2.49,2.49,0,1,0-2.43-2.35A2.28,2.28,0,0,0,192.26,464.95Z" transform="translate(-31.48 -18.4)"/><path class="cls-4" d="M516.55,465a2.5,2.5,0,0,0,0-5,2.46,2.46,0,0,0-2.47,2.38A2.36,2.36,0,0,0,516.55,465Z" transform="translate(-31.48 -18.4)"/><path class="cls-4" d="M291,464.93a2.28,2.28,0,0,0,2.31-2.46A2.31,2.31,0,0,0,291,460a2.4,2.4,0,0,0-2.45,2.36A2.31,2.31,0,0,0,291,464.93Z" transform="translate(-31.48 -18.4)"/><path class="cls-4" d="M531,446.37c.17-.23-.1-.27-.27-.31l-.15.14C530.63,446.42,530.84,446.55,531,446.37Z" transform="translate(-31.48 -18.4)"/></svg>